<svg width="165" height="141" viewBox="0 0 165 141" fill="none" xmlns="http://www.w3.org/2000/svg">
<path d="M16.832 126.276C16.832 130.713 13.3465 134.311 9.04688 134.311C4.74725 134.311 1.26172 130.713 1.26172 126.276C1.26172 121.838 4.74725 118.241 9.04688 118.241C13.3465 118.241 16.832 121.838 16.832 126.276Z" fill="black"/>
<path d="M42.5455 113.006C42.5455 120.335 36.7893 126.276 29.6888 126.276C22.5882 126.276 16.832 120.335 16.832 113.006C16.832 105.678 22.5882 99.7371 29.6888 99.7371C36.7893 99.7371 42.5455 105.678 42.5455 113.006Z" fill="black"/>
<path d="M63.8438 96.168L67.1485 93.4637L80.9559 103.229V111.568L79.0555 115.8L72.2313 122.97L63.334 131.781C60.2819 134.171 53.5211 139.21 50.8951 140.246C48.2691 141.283 47.1518 140.678 46.9214 140.246L52.7459 132.456C53.2832 131.737 53.5735 130.864 53.5735 129.967V129.385C53.5735 128.356 53.8766 127.35 54.445 126.493C54.6994 126.109 54.9027 125.694 55.0441 125.256C55.5712 123.622 56.3312 121.088 56.3312 120.356V107.285L57.3827 103.229L59.7868 99.9238L63.8438 96.168Z" fill="black"/>
<path d="M85.3959 99.9238L70.4 89.5922L73.5432 84.336L88.9893 94.637L85.3959 99.9238Z" fill="black"/>
<path d="M92.5818 89.5922L76.6355 78.9398L131.55 4.61868L134.036 1.66158L137.119 0.956017H140.023L141.058 3.10021V5.7617L92.5818 89.5922Z" fill="black"/>
<path d="M85.3959 117.727L90.6223 103.586C91.0014 102.56 91.9792 101.879 93.0727 101.879C93.4611 101.879 93.8447 101.792 94.1954 101.625L95.0495 101.219C95.6614 100.928 96.2262 100.547 96.7254 100.088L98.0705 98.8539C98.4273 98.5264 98.7509 98.1645 99.0365 97.7734L99.3783 97.3056C100.076 96.35 100.452 95.1972 100.452 94.0138C100.452 93.0464 100.704 92.0957 101.182 91.2548L126.87 46.0875L136.391 27.6355V41.1164H141.583C143.559 41.1164 145.523 41.417 147.409 42.008C149.265 42.5899 151.024 43.4467 152.627 44.5498L154.814 46.0554C156.065 46.9166 157.214 47.9174 158.239 49.0386L158.352 49.1625C160.206 51.1912 161.622 53.5801 162.511 56.1802L162.776 56.9543C163.16 58.0769 163.443 59.2315 163.623 60.4044L164.219 64.3002C164.372 65.3008 164.449 66.3116 164.449 67.3239V69.8909C164.449 71.9809 164.089 74.0554 163.386 76.0235C162.638 78.1154 161.515 80.053 160.071 81.7408L158.074 84.0744L155.458 86.9152C153.336 89.2208 150.701 90.9952 147.767 92.0956L145.55 92.9269C143.305 93.7689 140.926 94.2003 138.528 94.2003H137.842C136.555 94.2003 135.272 94.0761 134.009 93.8296L127.394 92.5378L126.921 96.6132C126.7 98.5211 126.205 100.387 125.452 102.154L125.023 103.161C124.506 104.372 123.872 105.528 123.128 106.615L121.757 108.618C120.428 110.56 118.766 112.252 116.849 113.616L115.31 114.711C113.69 115.863 111.908 116.768 110.021 117.395L105.725 118.822C104.39 119.266 103.011 119.568 101.612 119.722L98.5878 120.056C97.1413 120.215 95.6817 120.217 94.2349 120.06L92.4842 119.869C90.172 119.618 87.9214 118.966 85.8334 117.941L85.3959 117.727Z" fill="black"/>
<path fill-rule="evenodd" clip-rule="evenodd" d="M115.471 15.2404L114.623 13.112C113.692 10.7748 112.243 8.67934 110.385 6.98363C109.494 6.17142 108.518 5.45841 107.474 4.85716L105.392 3.65859C104.031 2.87486 102.582 2.25422 101.076 1.80951L98.1844 0.956017L94.1135 0.261361C93.0942 0.0874316 92.062 0 91.028 0C89.2912 0 87.5633 0.246635 85.8959 0.732518L84.7967 1.05286C83.4086 1.45735 82.0713 2.01913 80.8108 2.72726L80.7273 2.77414C78.9988 3.74517 77.4387 4.9893 76.1074 6.45836C74.6671 8.04758 73.516 9.87646 72.706 11.8623L71.6924 14.3472L68.5588 11.7794C67.1887 10.6566 65.6756 9.72092 64.059 8.99674L63.1147 8.57372C61.3822 7.79757 59.5479 7.27205 57.6672 7.01299L52.1932 6.259H46.7535C45.763 6.259 44.7738 6.33259 43.7941 6.47916L39.6537 7.09865C38.2986 7.30138 36.9681 7.64282 35.6828 8.11757L32.8853 9.15099C31.585 9.63128 30.3383 10.2454 29.1651 10.9836L27.153 12.2494C26.0985 12.9129 25.1083 13.6734 24.1952 14.5211L21.9159 16.6374C20.9788 17.5075 20.1274 18.4654 19.3732 19.498L16.5913 23.3068L14.8178 26.4368C13.9559 27.958 13.2972 29.5856 12.8585 31.278L12.408 33.016C12.0262 34.4889 11.833 36.0043 11.833 37.5259C11.833 39.4769 12.1507 41.4149 12.7736 43.2639L13.5194 45.4779L12.2093 46.0012C9.50087 47.0831 7.06186 48.7442 5.06318 50.8681L4.24278 51.74L2.96407 53.487C2.17452 54.5658 1.54264 55.7514 1.08743 57.0084C0.702788 58.0704 0.447356 59.175 0.326645 60.2981L0.100957 62.398C-0.0285037 63.6025 -0.0336197 64.8172 0.0856903 66.0227L0.132543 66.4962C0.379496 68.9915 1.22074 71.3914 2.58584 73.4949C3.68027 75.1813 5.0885 76.6417 6.73395 77.7967L7.89359 78.6108C9.03095 79.4092 10.2484 80.0869 11.5263 80.6329L13.4904 81.4721C15.3031 82.2466 17.2379 82.6959 19.2064 82.7995C21.7668 82.9343 24.324 82.481 26.6821 81.4745L28.0376 80.896L29.3629 80.414L29.4856 82.5243C29.6038 84.5568 30.0623 86.555 30.8421 88.4356C31.4199 89.8293 32.169 91.1457 33.0719 92.3545L34.304 94.0039C35.0643 95.0218 35.9199 95.9649 36.8592 96.8205L37.7761 97.6556C39.4246 99.1572 41.3126 100.373 43.362 101.251L47.9742 103.229L61.4413 90.5438C62.9745 89.0996 63.8438 87.0866 63.8438 84.9803C63.8438 84.5516 63.8798 84.1236 63.9516 83.7009L63.9638 83.6288C64.1808 82.3508 64.687 81.1392 65.4436 80.0865L65.9693 79.3551L67.8207 77.2569C68.0427 77.0051 68.2926 76.7794 68.5654 76.5837L69.5731 75.8612C70.0929 75.4884 70.7592 75.3856 71.3673 75.5843C72.2096 75.8596 73.1328 75.5503 73.6393 74.8231L77.7065 68.9829L92.5818 49.8297L105.479 31.0357L115.471 15.2404ZM30.9043 69.1254C37.3332 69.1254 42.5449 63.7464 42.5449 57.1111C42.5449 50.4758 37.3332 45.0969 30.9043 45.0969C24.4754 45.0969 19.2637 50.4758 19.2637 57.1111C19.2637 63.7464 24.4754 69.1254 30.9043 69.1254ZM67.3633 36.8841C67.3633 43.9574 61.8075 49.6916 54.9541 49.6916C48.1007 49.6916 42.5449 43.9574 42.5449 36.8841C42.5449 29.8107 48.1007 24.0766 54.9541 24.0766C61.8075 24.0766 67.3633 29.8107 67.3633 36.8841ZM87.7285 38.848C94.1575 38.848 99.3691 33.4691 99.3691 26.8338C99.3691 20.1985 94.1575 14.8195 87.7285 14.8195C81.2996 14.8195 76.0879 20.1985 76.0879 26.8338C76.0879 33.4691 81.2996 38.848 87.7285 38.848Z" fill="black"/>
</svg>
