<svg width="662" height="590" viewBox="0 0 662 590" fill="none" xmlns="http://www.w3.org/2000/svg">
<path fill-rule="evenodd" clip-rule="evenodd" d="M279.119 1.8966C281.919 1.5966 289.519 0.996575 296.119 0.496575C312.719 -0.503425 369.219 0.0965745 380.119 1.49657C392.919 2.99657 409.819 5.49655 411.819 6.09655C412.819 6.39655 414.819 6.79655 416.319 7.09655C417.919 7.39655 420.719 7.99657 422.619 8.49657C424.519 8.99657 427.919 9.69657 430.119 9.99657C434.719 10.6966 441.419 12.2966 443.619 13.1966C444.419 13.5966 445.919 13.8966 446.819 13.9966C450.419 14.3966 461.619 17.9966 461.619 18.7966C461.619 19.1966 462.119 19.2966 462.619 18.9966C463.219 18.5966 464.819 19.0966 466.219 19.9966C467.619 20.8966 469.019 21.3965 469.319 21.0965C469.619 20.7965 470.819 21.1966 472.019 21.9966C473.119 22.7966 475.019 23.4966 476.219 23.4966C477.319 23.4966 478.619 23.7966 479.019 24.1966C479.419 24.6966 480.119 24.9966 480.419 24.9966C482.119 24.9966 489.619 27.8966 489.619 28.4966C489.619 28.9966 491.619 29.8965 494.119 30.5965C496.619 31.2965 498.619 32.2966 498.619 32.7966C498.619 33.2966 499.319 33.4965 500.119 33.0965C500.919 32.7965 501.619 32.9966 501.619 33.4966C501.619 34.0966 502.219 34.4966 502.919 34.4966C504.619 34.4966 522.919 43.7966 525.919 46.1966C527.219 47.1966 530.219 48.8966 532.519 49.8966C534.719 50.9966 536.619 52.1966 536.619 52.6966C536.619 53.0966 537.519 53.4966 538.719 53.4966C539.819 53.4966 540.419 53.8966 540.119 54.4966C539.819 54.9966 540.819 55.6965 542.319 56.0965C543.819 56.4965 546.119 57.7966 547.319 58.8966C548.519 60.0966 550.719 61.6966 552.319 62.4966C554.919 63.8966 557.719 65.9966 565.819 72.6966C567.619 74.2966 569.619 75.4966 570.219 75.4966C570.819 75.4966 572.219 76.5966 573.219 77.9966C574.219 79.3966 575.719 80.4965 576.419 80.4965C577.119 80.4965 577.519 80.7965 577.319 81.1965C577.019 81.6965 577.419 82.5965 578.219 83.2965C579.019 83.9965 579.619 84.2965 579.619 83.9965C579.619 83.5965 581.819 85.5965 584.519 88.3965C587.219 91.1965 590.019 93.4965 590.619 93.4965C591.219 93.4965 591.519 93.8965 591.219 94.3965C590.919 94.7965 593.319 97.7965 596.619 100.897C599.919 103.997 602.519 106.797 602.519 107.097C602.519 107.397 604.019 108.997 605.819 110.697C609.819 114.397 620.619 128.597 620.619 130.097C620.619 130.797 621.219 131.497 622.019 131.797C622.719 132.097 624.719 134.697 626.519 137.697C630.719 144.797 632.019 146.897 632.719 147.497C633.219 147.997 634.819 151.297 635.019 152.497C635.119 152.797 635.619 153.697 636.119 154.497C638.119 157.697 641.619 165.097 641.619 166.097C641.619 166.697 642.419 168.297 643.419 169.597C645.019 171.697 648.419 179.497 649.019 182.797C649.061 182.921 649.11 183.079 649.167 183.26L649.198 183.358L649.199 183.361L649.199 183.362C649.415 184.052 649.717 185.017 650.019 185.697C650.419 186.597 650.919 188.097 651.019 188.997C651.119 189.897 651.919 191.097 652.719 191.597C653.819 192.297 653.819 192.497 652.719 192.497C651.819 192.497 651.719 192.897 652.319 193.697C652.919 194.397 653.219 195.797 653.119 196.797C652.919 197.797 653.219 198.197 653.819 197.797C654.519 197.397 654.719 197.997 654.419 199.297C654.019 200.497 654.119 201.497 654.619 201.497C655.219 201.497 656.219 204.997 657.119 210.997C657.219 211.497 657.619 213.197 658.019 214.597C660.119 222.097 661.419 238.597 661.219 255.997C661.119 266.497 660.719 275.497 660.319 276.197C659.519 277.497 658.719 281.897 658.119 288.197C657.919 290.497 657.319 293.197 656.719 294.297C656.119 295.397 655.519 297.997 655.419 299.897C655.219 301.897 654.819 303.497 654.519 303.497C653.619 303.497 651.619 308.297 651.619 310.397C651.619 311.497 650.919 312.597 650.019 312.897C649.219 313.197 648.819 313.897 649.119 314.497C649.419 314.997 649.219 315.497 648.719 315.497C648.119 315.497 647.719 315.897 647.919 316.397C648.019 316.897 647.219 318.097 646.119 318.997C645.019 319.897 644.819 320.297 645.619 319.897C646.419 319.597 645.119 321.197 642.619 323.497C640.119 325.797 638.819 327.397 639.619 326.897C640.519 326.397 640.319 326.797 639.119 327.697C635.919 330.597 635.219 331.097 632.319 332.897C630.819 333.897 629.619 335.197 629.619 335.897C629.619 338.997 612.319 346.897 600.619 349.297C595.319 350.397 572.719 349.897 567.619 348.597C565.119 347.897 561.819 347.297 560.119 346.997C558.519 346.797 555.319 346.197 553.019 345.697C546.119 344.197 526.019 345.297 521.719 347.397C520.819 347.897 518.519 348.997 516.619 349.897C511.619 352.297 509.119 353.797 507.519 355.497C505.119 358.097 501.019 363.897 500.219 365.997C499.019 368.897 498.919 374.697 499.919 376.897L505.848 390.845L514.819 409.197C514.729 409.378 515.296 410.793 515.999 412.547L516 412.549C516.049 412.672 516.099 412.797 516.15 412.923L516.219 413.097C517.019 415.097 517.519 416.997 517.219 417.297C516.919 417.597 517.119 418.397 517.719 419.097C518.319 419.897 518.619 421.197 518.219 421.997C517.919 422.797 518.019 423.497 518.519 423.497C518.919 423.497 519.119 426.097 518.919 429.297C518.619 433.697 518.719 434.697 519.619 433.497C520.419 432.397 520.619 433.297 520.119 437.497C519.819 440.497 519.219 444.297 518.919 445.897C518.619 447.797 518.719 448.497 519.519 448.097C520.119 447.697 520.619 448.097 520.619 448.997C520.619 449.897 520.119 450.297 519.619 449.997C518.919 449.597 518.719 451.297 519.019 454.897C519.219 457.997 519.019 460.697 518.519 461.097C518.019 461.397 517.819 462.097 518.219 462.597C518.519 463.097 518.019 464.697 517.119 466.097C516.219 467.497 515.719 468.897 516.019 469.197C516.319 469.497 516.019 470.697 515.319 471.897C514.119 473.897 514.019 474.597 513.719 477.297C513.719 477.997 513.219 478.397 512.819 478.097C512.419 477.897 511.919 478.597 511.919 479.797C511.819 480.997 511.019 482.497 510.119 483.097C509.319 483.697 508.619 484.497 508.619 484.897C508.619 485.297 507.419 486.797 505.819 488.297C504.319 489.797 502.219 492.097 501.119 493.497C500.019 494.897 497.419 497.097 495.419 498.397C493.319 499.597 491.619 501.097 491.619 501.597C491.619 502.097 490.919 502.497 490.119 502.497C489.319 502.497 488.619 502.897 488.619 503.497C488.619 503.819 486.963 504.314 484.028 505.192C482.416 505.674 480.417 506.272 478.095 507.019C477.008 507.369 475.689 507.717 474.438 508.047L474.436 508.048L474.433 508.049L474.428 508.05L474.427 508.05C472.299 508.611 470.371 509.119 470.119 509.497C469.719 510.097 469.019 510.297 468.519 509.997C468.019 509.597 467.019 509.697 466.419 510.197C465.719 510.597 464.719 510.997 464.119 511.097C463.619 511.197 461.819 511.897 460.119 512.597C458.519 513.297 456.719 513.697 456.219 513.597C455.819 513.497 454.319 514.097 453.019 514.997C451.619 515.897 450.119 516.297 449.719 515.997C449.219 515.697 448.619 515.897 448.419 516.397C448.319 516.997 446.919 517.597 445.419 517.897C443.919 518.097 442.219 518.597 441.619 518.997C441.119 519.297 439.219 519.797 437.419 519.997C435.619 520.297 431.419 521.197 428.119 522.097C424.819 522.997 420.519 523.897 418.619 524.197C416.719 524.397 414.419 524.897 413.619 525.197C412.819 525.497 411.219 525.897 410.119 526.097C402.919 527.197 398.919 527.997 395.819 528.897C394.919 529.197 391.219 529.697 387.619 529.997C384.019 530.197 379.819 530.697 378.119 530.997C375.219 531.497 370.619 531.897 355.119 532.897C344.719 533.697 321.019 533.597 313.619 532.897C310.019 532.497 304.419 531.997 301.119 531.797C297.819 531.597 293.119 531.197 290.619 530.797C289.042 530.607 287.027 530.418 285.277 530.254L285.265 530.253L285.258 530.252L285.248 530.251C284.236 530.156 283.314 530.07 282.619 529.997C280.719 529.897 278.919 529.697 278.619 529.597C278.319 529.397 276.819 529.197 275.119 529.097C273.519 528.897 269.619 528.197 266.619 527.497L222.079 519.997L174.219 505.192L137.619 488.297L111.907 470.07L101.565 462.776L93.2013 456.907C93.2013 456.907 89.4192 454.097 87.6192 452.497C85.8192 450.797 84.0192 449.497 83.5192 449.497C83.1192 449.497 82.2192 448.697 81.7192 447.697C81.2192 446.697 79.6192 445.297 78.2192 444.597C76.8192 443.797 75.9192 442.797 76.2192 442.297C76.5192 441.897 76.2192 441.497 75.6192 441.497C72.9192 441.497 46.7192 412.697 42.0192 404.297C41.4192 403.297 39.7192 401.197 38.4192 399.697C35.3192 396.297 29.6192 387.197 29.6192 385.697C29.6192 384.997 29.2192 384.497 28.7192 384.497C27.6192 384.497 23.6192 376.997 23.6192 374.997C23.6192 374.197 23.2192 373.497 22.6192 373.497C22.1192 373.497 21.6192 372.797 21.6192 371.897C21.6192 371.097 20.9192 369.697 20.1192 368.897C19.3192 367.997 18.6192 366.497 18.6192 365.397C18.6192 364.397 18.1192 363.497 17.4192 363.497C16.8192 363.497 16.5192 363.197 16.9192 362.897C17.2192 362.497 16.9192 361.097 16.2192 359.597C15.4192 358.197 14.6192 355.897 14.5192 354.497C14.3192 353.097 13.6192 351.497 12.9192 350.997C11.5192 349.797 7.01916 336.497 5.01916 327.597C0.41916 306.497 0.31916 305.697 0.0191602 274.197C-0.0808398 257.297 0.21916 243.197 0.71916 242.897C1.21916 242.697 1.31916 241.097 1.01916 239.597C-0.78084 230.697 6.91916 196.497 15.1192 176.497C19.0192 167.197 25.6192 154.097 26.9192 153.297L40.8821 131.86L58.4192 108.697C59.2767 107.744 61.2236 105.338 62.8759 103.297L63.1192 102.997C66.8192 97.9965 78.7192 85.9965 84.1192 81.7965C86.3192 80.0965 90.1192 76.8965 92.6192 74.5965C95.1192 72.3965 97.7192 70.4966 98.3192 70.4966C99.0192 70.4966 99.6192 70.0965 99.6192 69.5965C99.6192 68.6965 122.519 53.0966 127.619 50.4966C129.019 49.7966 130.319 48.8966 130.619 48.4966C130.919 47.9966 134.719 45.8966 139.119 43.7966C148.919 38.9966 151.919 37.2966 152.819 35.9966C153.219 35.3966 153.619 35.2966 153.619 35.6966C153.619 36.0966 156.619 34.8966 160.419 33.0965C168.319 29.2966 172.319 27.5966 175.119 27.1966C176.219 26.9966 179.019 25.8966 181.319 24.6966C183.619 23.4966 186.319 22.4966 187.419 22.4966C188.419 22.4966 189.619 22.0965 190.119 21.5965C191.519 20.2965 215.719 13.1966 216.419 13.8966C216.719 14.1966 217.419 14.0966 218.019 13.4966C218.719 12.9966 220.719 12.2966 222.619 11.9966C224.419 11.6966 226.319 11.1966 226.719 10.9966C227.719 10.2966 246.019 6.5966 251.119 5.8966C253.319 5.5966 255.819 5.1966 256.619 4.8966C258.019 4.3966 266.619 3.1966 279.119 1.8966ZM354.119 38.0965C357.819 39.1966 362.619 39.6965 372.119 39.5965C388.719 39.4965 394.119 40.6966 400.319 45.6966C407.219 51.3966 409.619 55.9966 410.419 64.6966C411.219 73.4966 410.419 87.4965 408.619 93.0965C407.919 95.3965 405.319 99.3965 402.719 102.197C398.819 106.297 397.619 108.597 396.319 113.897C394.319 121.997 392.519 124.797 386.719 128.697C384.219 130.497 379.219 134.297 375.619 137.397C364.119 146.997 354.519 149.797 340.719 147.497C335.519 146.597 332.119 145.397 328.519 142.897C325.719 141.097 320.519 138.597 316.919 137.497C302.319 132.997 295.419 127.797 290.119 117.297C284.719 106.497 285.819 96.9965 293.519 86.8965C297.219 81.8965 297.419 81.2966 298.019 72.1966C298.319 66.9966 298.919 61.7966 299.219 60.7966C303.319 48.5966 310.919 41.2966 324.019 36.8966C329.319 35.0966 347.319 35.7966 354.119 38.0965ZM202.119 60.7966C204.319 61.4966 209.919 63.9966 214.619 66.2966C221.019 69.4966 225.119 70.6966 231.119 71.4966C243.519 73.0966 248.419 75.0965 254.119 80.9965C261.719 88.7965 263.119 93.5965 263.019 111.997C263.019 129.597 261.919 133.397 253.619 146.497C246.719 157.197 238.519 164.297 226.119 170.497C214.619 176.197 206.219 177.997 196.719 176.997C185.319 175.797 176.719 171.197 171.619 163.797C167.219 157.297 160.319 151.397 152.519 147.497C138.219 140.297 133.019 131.797 133.919 116.997C134.619 104.197 137.319 98.6965 147.619 88.4965C152.419 83.7965 157.119 78.3966 158.019 76.3966C160.019 72.0966 165.319 66.0966 168.619 64.3966C177.719 59.7966 193.619 58.0966 202.119 60.7966ZM494.019 68.5965C496.219 69.1966 500.019 70.5965 502.319 71.5965C504.719 72.6966 507.019 73.4966 507.519 73.4966C508.819 73.4966 516.419 81.5965 518.819 85.5965C519.919 87.4965 521.519 90.6965 522.219 92.7965C523.919 97.6965 525.419 99.0965 532.719 102.597C544.319 108.197 549.619 117.897 549.619 133.097C549.519 139.597 549.019 142.097 546.819 147.197C545.219 150.597 542.519 154.997 540.819 156.997C539.019 158.897 538.019 160.497 538.619 160.497C539.219 160.497 539.419 160.997 539.119 161.597C538.719 162.097 537.919 162.397 537.319 162.197C536.619 161.997 534.919 162.797 533.419 163.997C529.719 167.097 519.419 169.397 505.119 170.497C491.419 171.397 489.519 172.097 482.119 178.897C474.419 185.897 471.519 186.997 461.119 186.997C453.719 186.997 451.219 186.497 447.119 184.597C444.419 183.297 442.119 182.397 442.119 182.597C442.119 182.897 439.019 180.097 434.019 175.297C426.219 167.897 421.219 144.497 425.119 133.397L432.919 111.297C433.219 107.697 433.919 103.697 434.419 102.397C440.019 88.1965 441.619 85.9966 451.919 78.2966C459.119 72.9966 464.519 70.5966 475.119 68.1966C479.119 67.2966 490.019 67.4965 494.019 68.5965ZM115.219 152.997C128.519 156.097 138.619 162.597 142.819 170.897C143.919 173.097 145.019 177.597 145.319 180.897C145.367 181.601 145.411 182.264 145.452 182.89C145.8 188.21 145.971 190.818 147.251 192.654C148.481 194.42 150.738 195.47 155.166 197.531C155.745 197.801 156.362 198.088 157.019 198.397C168.119 203.597 171.819 206.697 174.219 213.197C176.519 219.097 175.719 233.297 172.819 239.797C169.919 246.397 160.519 255.897 153.719 259.297C148.619 261.697 147.119 261.997 137.619 261.897C129.219 261.897 125.419 261.297 118.719 259.197C107.219 255.597 103.119 255.697 94.3192 259.997C88.5192 262.897 86.1192 263.497 80.9192 263.497C72.1192 263.497 64.8192 260.497 57.8192 253.997C47.2192 244.297 44.2192 233.397 46.4192 213.297C49.1192 188.997 53.5192 176.097 62.6192 166.197C68.0192 160.297 77.9192 154.597 86.2192 152.597C92.3192 151.197 108.519 151.397 115.219 152.997ZM531.219 189.697C542.019 176.997 565.319 171.197 585.119 176.397C596.219 179.197 610.819 187.297 613.919 192.197C614.319 192.897 615.419 193.497 616.119 193.497C616.919 193.497 617.619 194.297 617.619 195.297C617.619 196.297 618.519 197.697 619.619 198.497C620.719 199.297 621.619 200.397 621.619 200.997C621.619 201.597 622.419 202.997 623.419 204.097C624.319 205.097 625.319 207.097 625.519 208.497C625.619 209.897 626.319 211.297 626.819 211.597C628.619 212.797 630.319 221.797 629.819 227.897C629.519 232.697 629.619 233.597 630.719 232.897C631.819 232.297 631.919 232.397 631.019 233.597C630.419 234.397 629.619 238.097 629.219 241.997C628.219 253.197 624.819 261.697 618.719 268.297C617.019 270.197 615.819 272.097 616.119 272.597C616.519 273.097 616.019 273.497 615.219 273.497C614.319 273.497 613.619 273.897 613.619 274.497C613.619 274.997 612.919 275.497 612.119 275.497C611.319 275.497 610.619 276.097 610.619 276.897C610.619 277.697 609.319 278.597 607.619 278.997C606.019 279.397 604.619 280.197 604.619 280.997C604.619 281.697 603.319 282.497 601.619 282.797C599.819 283.197 598.619 284.097 598.619 284.997C598.619 285.997 597.619 286.497 595.919 286.497C592.319 286.497 588.519 287.597 589.019 288.397C589.619 289.197 579.919 289.997 570.619 289.897C564.519 289.797 561.919 289.197 557.619 286.997C552.419 284.397 545.219 279.197 541.319 275.297C540.319 274.297 538.719 273.497 537.719 273.497C534.219 273.497 522.119 269.297 520.019 267.397C518.919 266.397 517.519 265.497 517.019 265.497C515.519 265.497 510.519 255.797 509.019 249.997C507.219 243.497 507.319 237.997 509.219 232.997C510.119 230.797 510.819 228.497 510.819 227.797C510.919 227.097 511.219 226.697 511.519 226.797C511.919 226.897 513.219 225.997 514.619 224.697C515.919 223.497 517.519 222.497 518.219 222.497C519.819 222.497 522.619 218.097 522.619 215.497C522.619 214.297 523.019 213.597 523.519 213.997C524.019 214.297 524.719 211.897 525.119 208.797C526.219 198.297 527.719 193.797 531.219 189.697ZM99.0192 283.697C102.419 284.997 104.219 285.297 105.019 284.497C105.519 283.997 106.519 283.497 107.119 283.497C107.619 283.497 107.419 283.997 106.619 284.497C103.619 286.497 107.719 287.297 121.019 287.397C128.219 287.497 135.619 287.997 137.419 288.597C141.619 289.997 151.119 294.997 155.619 298.197C174.019 311.497 181.319 336.997 173.319 360.497C171.919 364.597 170.919 368.197 171.219 368.597C171.419 368.997 170.919 369.497 170.119 369.897C169.319 370.197 168.619 371.097 168.619 371.897C168.619 373.897 155.319 387.397 149.519 391.297C140.219 397.597 125.819 401.497 112.619 401.497C100.419 401.397 92.3192 397.697 86.4192 389.497C84.2192 386.497 78.7192 373.997 78.2192 370.997C76.9192 363.397 71.5192 353.497 68.7192 353.497C68.1192 353.497 67.6192 353.197 67.6192 352.697C67.6192 352.297 65.1192 350.397 62.1192 348.497C58.9192 346.397 56.0192 343.597 55.1192 341.697C54.0192 339.497 52.9192 338.497 52.0192 338.897C51.2192 339.197 50.6192 338.997 50.6192 338.497C50.6192 337.897 51.0192 337.497 51.5192 337.497C52.0192 337.497 51.7192 335.397 50.9192 332.697C49.4192 327.897 49.3192 304.197 50.8192 305.097C51.2192 305.397 52.4192 303.597 53.6192 301.097C56.1192 295.597 64.6192 287.197 70.6192 284.197C78.9192 280.197 89.6192 279.997 99.0192 283.697ZM365.661 426.591C362.924 413.023 368.4 399.112 379.652 391.051L383.455 388.327C393.575 381.076 406.371 378.64 418.447 381.665L435.977 386.055C444.592 388.213 451.619 394.429 454.811 402.717C458.653 412.694 456.315 423.995 448.83 431.629L438.402 442.263C429.305 451.54 416.551 456.285 403.602 455.211L397.224 454.682C381.623 453.387 368.757 441.936 365.661 426.591Z" fill="black"/>
<path d="M88.2581 524.446C90.573 545.242 103.017 555.193 123.813 552.878C144.609 550.563 154.561 538.119 152.246 517.323C149.931 496.527 137.486 486.576 116.69 488.891C95.8944 491.206 85.9431 503.65 88.2581 524.446Z" fill="black"/>
<path d="M52.161 562.869C53.7044 576.733 62.0006 583.367 75.8646 581.824C89.7286 580.281 96.3628 571.984 94.8195 558.12C93.2762 544.256 84.9799 537.622 71.1159 539.165C57.2519 540.709 50.6177 549.005 52.161 562.869Z" fill="black"/>
<path d="M21.3401 576.967C22.315 585.725 27.5556 589.916 36.3132 588.941C45.0709 587.966 49.2616 582.725 48.2867 573.968C47.3118 565.21 42.0712 561.019 33.3136 561.994C24.5559 562.969 20.3652 568.21 21.3401 576.967Z" fill="black"/>
</svg>
