<svg width="14" height="14" viewBox="0 0 14 14" fill="none" xmlns="http://www.w3.org/2000/svg">
<g clip-path="url(#clip0_348_1096)">
<path d="M6.41931 2.33417H2.33417C2.02462 2.33417 1.72774 2.45714 1.50885 2.67603C1.28996 2.89492 1.16699 3.1918 1.16699 3.50136V11.6716C1.16699 11.9812 1.28996 12.2781 1.50885 12.4969C1.72774 12.7158 2.02462 12.8388 2.33417 12.8388H10.5044C10.814 12.8388 11.1109 12.7158 11.3298 12.4969C11.5487 12.2781 11.6716 11.9812 11.6716 11.6716V7.58649M10.7962 1.45879C11.0284 1.22662 11.3433 1.09619 11.6716 1.09619C12 1.09619 12.3148 1.22662 12.547 1.45879C12.7792 1.69096 12.9096 2.00584 12.9096 2.33417C12.9096 2.66251 12.7792 2.97739 12.547 3.20956L7.0029 8.75367L4.66854 9.33726L5.25213 7.0029L10.7962 1.45879Z" stroke="white" stroke-width="1.12049" stroke-linecap="round" stroke-linejoin="round"/>
</g>
<defs>
<clipPath id="clip0_348_1096">
<rect width="14.0062" height="14.0062" fill="white"/>
</clipPath>
</defs>
</svg>
