<svg width="19" height="23" viewBox="0 0 19 23" fill="none" xmlns="http://www.w3.org/2000/svg">
<path d="M0 4.52436V22.1122L0.223338 22.2967L0.446676 22.49H17.7408L17.9253 22.3055C18.1001 22.121 18.1098 21.8135 18.1098 11.245C18.1098 0.676457 18.1001 0.368977 17.9253 0.184488C17.7408 0 17.7214 0 11.3708 0H5.00083L0 4.52436ZM16.6047 21.1722H1.45655V5.53465H3.54428C6.34086 5.53465 6.11752 5.73671 6.11752 3.20658V1.31777H16.6047V21.1722ZM4.56386 3.25051V4.12902H2.57324L3.54428 3.25051C4.07835 2.76732 4.52502 2.37199 4.53473 2.37199C4.55415 2.37199 4.56386 2.76732 4.56386 3.25051Z" fill="white"/>
<path d="M6.46709 7.13355C6.0981 7.42346 3.68993 12.2114 3.68993 12.6418C3.68993 13.0635 3.96182 13.3007 4.42792 13.3007C4.86489 13.3007 5.03967 13.125 5.46693 12.2553L5.8165 11.5525H8.0693L8.41887 12.2553C8.84613 13.1338 9.02092 13.3007 9.4773 13.3007C9.90456 13.3007 10.1959 13.0284 10.1959 12.6331C10.1959 12.2729 7.72944 7.38832 7.41871 7.13355C7.28276 7.02812 7.06913 6.94027 6.9429 6.94027C6.81667 6.94027 6.60304 7.02812 6.46709 7.13355ZM7.27305 10.0326C7.28276 10.0766 7.1274 10.1029 6.93319 10.1029C6.64188 10.1029 6.59333 10.0766 6.65159 9.9448C6.69043 9.86573 6.76811 9.68124 6.82638 9.53189L6.92348 9.27712L7.09827 9.61975C7.19537 9.81302 7.27305 9.99751 7.27305 10.0326Z" fill="white"/>
<path d="M12.4292 6.94027C12.0756 6.95001 11.7579 7.2097 11.7579 7.49082C11.7579 7.82466 11.5016 8.1614 11.1257 8.1614C10.7495 8.1614 10.4769 8.37263 10.4769 8.84728C10.4769 9.17154 10.7037 9.43629 11.1257 9.43629C11.3281 9.43629 11.7246 9.67913 11.7246 9.9954C11.7246 10.3995 11.9641 10.6311 12.4292 10.63C12.8859 10.629 13.1382 10.4171 13.1382 9.9954C13.1382 9.64399 13.4037 9.43629 13.7727 9.43629C14.2777 9.4275 14.4211 9.09834 14.4211 8.68543C14.4211 8.4131 14.1514 8.1614 13.7727 8.1614C13.4329 8.1614 13.1337 7.77487 13.1337 7.44103C13.1337 7.15991 12.779 6.93065 12.4292 6.94027Z" fill="white"/>
<path d="M4.01037 14.6888C3.50544 14.9084 3.55399 15.6376 4.07835 15.8748C4.4085 16.0241 13.6528 16.0417 14.0217 15.8923C14.3228 15.7694 14.4976 15.3916 14.4102 15.0753C14.2742 14.5746 14.3713 14.5834 9.07918 14.5921C5.86505 14.5921 4.15603 14.6273 4.01037 14.6888Z" fill="white"/>
<path d="M4.01037 16.7094C3.70935 16.8411 3.5637 17.2628 3.71906 17.5527C3.95211 18.0008 4.06864 18.0096 7.6032 17.992L10.6746 17.9669C11.3026 17.9618 11.5244 17.1509 11.0115 16.7884C10.7591 16.6127 10.6523 16.6039 7.48668 16.6127C5.39895 16.6127 4.14632 16.6479 4.01037 16.7094Z" fill="white"/>
</svg>
