<svg width="20" height="27" viewBox="0 0 20 27" fill="none" xmlns="http://www.w3.org/2000/svg">
<path d="M0 5.29962V25.9013L0.236682 26.1174L0.473364 26.3437H18.8008L18.9963 26.1276C19.1815 25.9115 19.1918 25.5514 19.1918 13.1719C19.1918 0.792371 19.1815 0.432202 18.9963 0.216101C18.8008 0 18.7802 0 12.0502 0H5.29962L0 5.29962ZM17.5968 24.8002H1.54358V6.48303H3.75604C6.71971 6.48303 6.48303 6.71971 6.48303 3.75604V1.54358H17.5968V24.8002ZM4.83655 3.80749V4.83655H2.72699L3.75604 3.80749C4.32202 3.24152 4.79539 2.77844 4.80568 2.77844C4.82626 2.77844 4.83655 3.24152 4.83655 3.80749Z" fill="white"/>
<path d="M6.85349 8.35591C6.46245 8.69549 3.9104 14.3038 3.9104 14.8081C3.9104 15.302 4.19854 15.5799 4.69248 15.5799C5.15555 15.5799 5.34078 15.374 5.79357 14.3553L6.16403 13.532H8.55143L8.92189 14.3553C9.37467 15.3843 9.5599 15.5799 10.0436 15.5799C10.4963 15.5799 10.8051 15.2609 10.8051 14.7978C10.8051 14.3759 8.19126 8.65433 7.86196 8.35591C7.7179 8.23242 7.4915 8.12952 7.35773 8.12952C7.22395 8.12952 6.99756 8.23242 6.85349 8.35591ZM7.70761 11.7518C7.7179 11.8032 7.55325 11.8341 7.34744 11.8341C7.03872 11.8341 6.98727 11.8032 7.04901 11.6489C7.09017 11.5563 7.1725 11.3402 7.23424 11.1652L7.33715 10.8668L7.52238 11.2681C7.62528 11.4945 7.70761 11.7106 7.70761 11.7518Z" fill="white"/>
<path d="M13.1719 8.12952C12.797 8.14092 12.4604 8.44511 12.4604 8.7744C12.4604 9.16544 12.1888 9.55989 11.7904 9.55989C11.3918 9.55989 11.1029 9.80731 11.1029 10.3633C11.1029 10.7431 11.3432 11.0532 11.7904 11.0532C12.005 11.0532 12.4251 11.3377 12.4251 11.7081C12.4251 12.1815 12.6789 12.4528 13.1719 12.4515C13.6558 12.4503 13.9232 12.2021 13.9232 11.7081C13.9232 11.2965 14.2046 11.0532 14.5956 11.0532C15.1307 11.0429 15.2827 10.6574 15.2827 10.1737C15.2827 9.85471 14.997 9.55989 14.5956 9.55989C14.2355 9.55989 13.9184 9.10712 13.9184 8.71608C13.9184 8.38678 13.5425 8.11824 13.1719 8.12952Z" fill="white"/>
<path d="M4.24999 17.2058C3.71488 17.463 3.76633 18.3171 4.32202 18.595C4.6719 18.7699 14.4685 18.7905 14.8595 18.6156C15.1785 18.4715 15.3638 18.029 15.2711 17.6585C15.1271 17.072 15.23 17.0823 9.62164 17.0926C6.21548 17.0926 4.40435 17.1337 4.24999 17.2058Z" fill="white"/>
<path d="M4.24999 19.5726C3.93098 19.7269 3.77662 20.2209 3.94127 20.5605C4.18824 21.0853 4.31173 21.0956 8.05748 21.075L11.2405 21.0462C11.9693 21.0397 12.2438 20.1139 11.6695 19.6652C11.4019 19.4594 11.2887 19.4491 7.934 19.4594C5.72153 19.4594 4.39406 19.5005 4.24999 19.5726Z" fill="white"/>
</svg>
