<svg width="132" height="81" viewBox="0 0 132 81" fill="none" xmlns="http://www.w3.org/2000/svg">
<path d="M74.9476 76.9194L62.1889 77.3483C60.0319 77.4208 57.8732 77.2771 55.7449 76.9194M74.9476 76.9194L84.893 74.7831C88.9237 73.6992 92.8756 72.1835 96.7068 70.2519L97.006 70.1011C101.491 67.8398 105.782 64.9943 109.81 61.6097C114.291 57.8442 118.419 53.4352 122.113 48.4689L127.755 40.8828C128.623 39.7157 128.542 37.8567 127.578 36.8197L121.354 30.1256L114.953 23.6712L106.952 17.2169C100.566 12.924 93.871 9.42589 86.9596 6.771C86.42 6.56374 85.866 6.39625 85.302 6.26987L76.5478 4.30825M74.9476 76.9194C77.79 76.1551 80.4384 75.0364 82.6532 72.6374L83.3278 71.9067C85.1943 69.8849 86.769 67.4616 87.9807 64.7465L90.9498 58.0934L91.7716 55.884C93.3377 51.6732 94.1503 47.0703 94.1503 42.409C94.1503 39.9656 93.927 37.5305 93.4849 35.1531L92.5501 30.1256L90.4286 22.9948C89.7111 20.5833 88.8051 18.2702 87.7243 16.0905L87.2251 15.0838C86.5095 13.6407 85.6852 12.2903 84.764 11.0517C82.5192 8.03371 79.7441 5.74069 76.6679 4.36207L76.5478 4.30825M50.9442 4.16482L57.245 3.37382C63.6827 2.56562 70.1766 2.87999 76.5478 4.30825M50.9442 4.16482L44.5433 12.914L44.1932 13.5417C41.2661 18.7889 39.3322 24.8311 38.5435 31.1934C38.2765 33.3468 38.1424 35.5236 38.1424 37.7038V39.5236C38.1424 43.29 38.4195 47.0481 38.9699 50.7484L39.337 53.2156C39.6069 55.0303 40.001 56.8112 40.5148 58.538L40.9186 59.8952C42.2434 64.3483 44.4896 68.2595 47.418 71.2123C48.6975 72.5025 50.0923 73.5946 51.5732 74.4657L55.7449 76.9194M50.9442 4.16482C44.569 5.68861 38.3703 8.23591 32.4961 11.746L32.1649 11.9439C28.6867 14.0222 25.3307 16.4184 22.123 19.1138L14.1391 25.8227L6.13795 34.4284L3.51776 37.9512C3.14521 38.4521 2.9375 39.1164 2.9375 39.8071C2.9375 40.4977 3.14521 41.162 3.51776 41.6629L9.55609 49.7812C10.4762 51.0183 11.4753 52.1554 12.5432 53.1809L22.1402 62.3972C29.57 68.1053 37.5989 72.4339 45.9849 75.2525C46.0905 75.288 46.1988 75.3151 46.3087 75.3336L55.7449 76.9194M67.6836 37.735L62.2004 25.9393C62.1641 25.8612 62.1211 25.7885 62.0721 25.7226C61.4961 24.9483 61.9262 23.6703 62.7627 23.6703H65.0188C65.2355 23.6703 65.4507 23.7171 65.6552 23.8088L67.6675 24.7106C69.297 25.4409 70.7671 26.6555 71.9562 28.2543C73.8768 30.8365 74.9476 34.2611 74.9476 37.8217V41.4219C74.9476 45.1299 73.5325 48.6055 71.155 50.7364C70.4861 51.336 69.7558 51.8153 68.9847 52.1609L68.5875 52.3389C66.4752 53.2855 64.1892 53.4025 62.0243 52.6749L61.8248 52.6078C59.9424 51.9751 58.2354 50.6855 56.8953 48.8837L56.8102 48.7693C56.1045 47.8205 55.521 46.7349 55.0815 45.553C54.4647 43.894 54.1447 42.0806 54.1447 40.2442V36.5799C54.1447 35.6022 54.9589 34.9749 55.6367 35.4305L62.7234 40.1944C63.1568 40.4858 63.1569 41.278 62.7235 41.5695C62.1613 41.9476 62.3718 43.0342 63.0073 43.0342H66.5269C67.5271 43.0342 68.2391 41.7935 67.9373 40.5763L67.6023 39.2251C67.4731 38.7038 67.5166 38.1786 67.6836 37.735ZM67.6836 37.735L69.4185 41.4671C69.8738 42.4467 69.9174 43.6513 69.5347 44.6803C69.2049 45.5673 68.6718 46.353 68.0344 46.7607C67.168 47.3149 65.9915 47.0805 64.993 47.3275L64.3286 47.4919C62.8059 47.8687 61.2041 47.3137 60.2409 46.0757C59.1912 44.8762 58.3316 43.5228 57.692 42.0628L56.8953 40.2442M67.6836 37.735C67.9364 37.0638 69.1533 38.2068 69.8015 38.2067C71.2705 38.2065 71.2744 34.2566 70.1703 33.0197L63.746 25.8227" stroke="white" stroke-width="5.87415"/>
</svg>
