<svg width="79" height="42" viewBox="0 0 79 42" fill="none" xmlns="http://www.w3.org/2000/svg">
<path d="M36.9697 34.8792L37.7207 35.1487L38.8843 34.8792L39.185 34.19L39.1002 33.4487L38.0284 33.297L37.4425 33.5582L36.9697 33.8699L36.8179 34.3922L36.9697 34.8792Z" fill="#85621D"/>
<path d="M34.0767 35.9522L34.4804 36.7712L35.1538 37.2126L36.1051 37.5989L37.0226 37.7276H39.332L40.8731 37.371L42.5413 36.9258L48.44 35.7896L51.9004 35.9855L54.4284 36.3969L56.5261 37.0825L56.4185 34.0266L57.1536 30.8924L53.8905 31.0491L49.9461 30.8924L43.5454 30.6965L40.3181 31.1471L37.7718 31.8875L36.627 32.4302L35.0023 33.6626L34.2363 34.6099L34.0767 35.9522Z" fill="#FFCB64"/>
<path d="M57.413 39.9225L60.5154 40.584L62.6964 40.3484L65.0288 39.6091L64.5244 37.8005L64.2871 34.2162L65.3133 30.0715L64.2141 29.6335H61.4594L58.3944 29.8313L57.2025 30.7795L56.492 33.4821L56.4106 36.2746L56.7132 38.3798L57.413 39.9225Z" fill="#D9D9D9"/>
<path d="M66.059 39.9934L67.1116 40.4562L68.1513 40.7367L69.3964 40.9611L70.2308 40.8069L71.7326 40.4562L73.6195 39.5727L74.9802 38.4367L76.0199 36.6136L76.8158 34.4959L77.1495 32.0135V29.5032L76.9184 27.2312L76.4795 26.2635L75.8775 25.4089L75.2586 26.2635L74.8005 27.3153L74.0007 28.0634L72.8091 28.5356L71.0692 28.6012L69.7716 28.5356H68.3814L66.9094 28.9824L65.6243 29.9652L64.9125 31.2799L64.4912 33.2327L64.3774 34.3432L64.3775 35.3372L64.493 37.6653L65.1476 39.2921L66.059 39.9934Z" fill="#EBDABE"/>
<path d="M75.7949 28.1095C75.7949 28.7666 75.6251 29.606 74.9896 29.606C73.2974 30.2338 73.4319 29.1847 73.7194 28.4521C73.9323 27.7566 74.3137 27.2623 74.9492 27.2623C75.5846 27.2623 75.7949 27.4524 75.7949 28.1095Z" fill="#242021"/>
<path d="M76.9152 27.0316C76.9152 27.6887 76.5379 28.1797 75.9025 28.1797C75.2671 28.1797 74.8032 27.7225 74.8032 27.0654C74.8032 26.4083 75.2671 25.8 75.9025 25.8C76.5379 25.8 76.9152 26.3744 76.9152 27.0316Z" fill="#242021"/>
<path d="M77.3478 28.8093C77.3478 29.5047 77.0168 30.4305 76.2723 30.7137C75.1181 31.1526 75.2358 29.5405 75.2358 28.8451C75.2358 28.1497 75.6996 27.5061 76.3351 27.5061C76.9705 27.5061 77.3478 28.1139 77.3478 28.8093Z" fill="#242021"/>
<path d="M68.5468 41.1313C67.4747 40.9712 66.3255 40.5077 65.5696 39.9178L65.1994 39.6229L64.7598 39.9094C63.8805 40.4908 62.7313 40.7352 60.9496 40.7352C59.515 40.7352 58.4352 40.5667 57.6947 40.2127C57.1163 39.9431 56.7846 39.37 56.4529 38.0976L56.2678 37.3813L55.7742 37.1116C55.1803 36.783 54.1391 36.4712 52.9281 36.2689C51.6786 36.0583 48.4238 36.0583 47.1049 36.2689C44.7293 36.6482 43.1327 36.9684 41.8601 37.297C39.9627 37.8026 39.2531 37.929 38.0807 37.988C35.9597 38.0892 34.4248 37.5077 33.9235 36.4038C33.6612 35.8139 33.6612 35.4094 33.9543 34.7352C34.124 34.356 34.3708 34.0021 34.7873 33.547C35.2886 33.0077 35.5277 32.8223 36.3068 32.3926C37.4483 31.7605 38.3044 31.4235 39.4845 31.1538C42.2457 30.5218 44.9298 30.387 49.681 30.6482C52.3111 30.7914 56.3912 30.7746 56.8463 30.6145C56.9851 30.5639 57.3168 30.3364 57.5867 30.1004L58.0727 29.6707L59.2219 29.578C59.8543 29.5274 61.3275 29.4769 62.4922 29.4684C64.5515 29.46 64.6209 29.4684 64.968 29.6538C65.1609 29.7549 65.346 29.8392 65.3768 29.8392C65.4154 29.8392 65.6159 29.6707 65.8319 29.4516C66.0478 29.2409 66.5029 28.9207 66.85 28.7353C67.7755 28.2465 68.3232 28.1791 70.2977 28.3224C71.1692 28.3814 72.1025 28.4066 72.3724 28.3729C73.028 28.3055 73.6914 27.9516 74.2775 27.3617C74.6632 26.9656 74.8252 26.7213 75.0951 26.0892C75.2879 25.651 75.5116 25.255 75.5965 25.2128C76.0669 24.9347 76.7842 25.9123 77.1468 27.328C77.5633 28.9628 77.5247 32.5021 77.0619 34.4993C76.792 35.7043 76.1981 37.1285 75.6504 37.8869C74.4241 39.5976 72.2413 40.8532 70.0123 41.1313C69.2487 41.224 69.2101 41.224 68.5468 41.1313ZM71.1384 40.4318C73.0049 39.9009 74.2081 39.1004 75.2339 37.6931C75.9898 36.6566 76.3986 35.5948 76.7225 33.8588C77.2856 30.8083 77.0851 27.6398 76.2366 26.2409L76.0284 25.8954L76.0207 26.8814C76.0207 27.6651 75.9821 27.9684 75.8433 28.4066C75.635 29.0639 75.2339 29.7549 74.9177 29.9993C74.5861 30.2606 74.5475 30.0752 74.856 29.696C75.5348 28.8701 75.9127 27.3364 75.7122 26.2241C75.6659 25.9881 75.527 25.8533 75.527 26.0471C75.527 26.0977 75.4191 26.3757 75.2879 26.6707C75.018 27.2859 74.6401 27.7156 73.8996 28.2634C73.1206 28.8364 72.2413 28.946 70.1974 28.7353C68.8862 28.6005 67.8912 28.7269 67.1585 29.1229C66.2792 29.5948 65.6391 30.1763 65.3691 30.7409C65.1531 31.1791 64.8061 32.2493 64.8061 32.4684C64.8061 32.519 64.9526 32.4094 65.1377 32.224C65.3151 32.0471 65.6545 31.7774 65.8936 31.6257C66.3564 31.3392 67.2742 30.9347 67.4747 30.9347C67.6598 30.9347 67.5287 31.078 67.2973 31.1454C67.0505 31.2044 66.1867 31.7774 65.5079 32.3251C65.0683 32.6791 64.5747 33.3279 64.6749 33.4291C64.6981 33.4544 64.9372 33.2858 65.2071 33.0583C66.179 32.2156 67.3745 31.6678 68.7936 31.3982C69.5495 31.2549 70.3285 31.2296 70.3979 31.3561C70.4211 31.4066 70.4365 31.4403 70.4211 31.4403C70.4057 31.4403 69.9814 31.4993 69.4724 31.5667C68.2152 31.7353 67.4439 31.9628 66.6032 32.4094C65.801 32.8392 64.7598 33.6987 64.6518 34.019C64.5284 34.3729 64.5515 36.3448 64.6904 36.547C64.9603 36.9684 66.1944 37.3392 67.3745 37.3392C68.1072 37.3392 68.354 37.4319 67.8835 37.5414C67.5133 37.6172 66.3409 37.6004 65.8859 37.5077C65.6545 37.4571 65.292 37.3307 65.0606 37.2128C64.5978 36.9852 64.5284 37.0611 64.914 37.3813C65.7933 38.1144 67.7293 38.4599 69.1639 38.1397C69.6806 38.0217 70.5522 37.7352 70.9224 37.5583C71.015 37.5077 71.0535 37.5246 71.0535 37.6172C71.0535 37.7942 70.4596 38.0807 69.5881 38.3251C68.9942 38.4936 68.6702 38.5358 67.8527 38.5358C66.7112 38.5358 65.9861 38.3672 65.1994 37.9375C64.9372 37.7942 64.7289 37.7099 64.7289 37.7521C64.7289 37.9628 65.0683 38.8054 65.2534 39.0414C65.7779 39.7155 67.2048 40.4234 68.5468 40.6594C69.079 40.7521 70.4134 40.6341 71.1384 40.4318ZM62.5616 40.1537C63.464 40.0105 64.4281 39.6903 64.7289 39.4459C64.9217 39.2858 64.9217 39.2858 64.7829 39.0498C63.9345 37.6172 63.8959 33.9094 64.6981 31.2634C64.7983 30.9094 64.9372 30.5471 64.9989 30.4628C65.0914 30.328 65.0837 30.2858 64.9835 30.1594C64.914 30.0752 64.8138 30.0077 64.7521 30.0077C64.6132 30.0077 64.3818 30.5892 64.1042 31.6426C63.7571 32.9403 63.6491 33.842 63.5951 35.7633C63.5643 36.9852 63.5257 37.474 63.4717 37.3729C63.3483 37.1285 63.3097 34.5667 63.4177 33.5639C63.5334 32.4347 63.8728 30.9347 64.1427 30.3617C64.2507 30.1257 64.3433 29.9066 64.3433 29.8813C64.3433 29.8139 63.0012 29.8308 61.2967 29.9235C59.7926 30.0077 59.7464 30.0162 59.4456 30.2437C59.1293 30.4881 58.8285 30.8926 58.4583 31.5667C58.3426 31.7858 58.2269 31.9459 58.1961 31.9207C58.1267 31.8364 58.7437 30.4965 58.9751 30.2353L59.1756 29.9993L58.736 30.0499C58.1267 30.1342 57.8798 30.3027 57.5173 30.8926C57.1548 31.4825 56.9157 32.224 56.7306 33.3195C56.5609 34.356 56.5609 36.7914 56.7306 37.6425C56.9851 38.8813 57.3168 39.5554 57.7873 39.8251C58.4892 40.2212 61.0653 40.3981 62.5616 40.1537ZM39.6619 37.3392C40.1478 37.238 41.1582 37.0105 41.8986 36.8335C43.796 36.3701 45.5006 36.033 47.0277 35.8139C48.7477 35.5695 51.3547 35.5442 52.7276 35.7633C53.8228 35.9487 55.1957 36.3195 55.7819 36.606L56.2061 36.8083V35.3251C56.2138 33.7324 56.3604 32.7128 56.746 31.5414L56.9234 31.0021L56.5686 31.0527C55.2034 31.2465 54.1699 31.2802 52.0489 31.1875C50.8148 31.1454 48.794 31.0611 47.5522 31.0105C42.9013 30.8252 39.793 31.2381 37.2863 32.401C35.0727 33.4206 33.7615 35.106 34.3014 36.2521C34.5328 36.7408 35.682 37.3644 36.6153 37.5077C37.2786 37.6172 38.6438 37.533 39.6619 37.3392Z" fill="black"/>
<path d="M60.0237 39.2016C58.6662 38.8729 58.5891 38.6959 59.8771 38.8898C61.0186 39.0667 62.2219 39.0667 63.4328 38.8813C64.3043 38.7549 64.6129 38.7634 64.4817 38.8982C64.4663 38.9235 64.1732 39.0162 63.8339 39.1173C62.9237 39.3785 60.9184 39.4207 60.0237 39.2016Z" fill="black"/>
<path d="M37.0621 35.1567C36.6842 34.9629 36.5762 34.7775 36.5762 34.3224C36.5762 33.8758 36.7767 33.623 37.3398 33.3449C38.2036 32.9235 39.0752 32.991 39.3837 33.505C39.6768 33.9938 39.4222 34.6932 38.8206 35.0556C38.3501 35.3421 37.5094 35.3926 37.0621 35.1567ZM38.3116 34.887C38.6895 34.769 39.1214 34.314 39.1214 34.0275C39.1214 33.7157 38.7898 33.4629 38.3964 33.4629C38.0262 33.4629 37.1701 33.7578 37.0389 33.9264C36.9927 33.9853 36.9618 34.1876 36.9772 34.3646C37.0004 34.6342 37.0389 34.7101 37.2703 34.828C37.5789 35.005 37.8797 35.0134 38.3116 34.887Z" fill="black"/>
<path d="M0.346192 16.4016L0.316676 16.3425C0.283429 16.276 0.254944 16.2073 0.231435 16.1367C0.205487 16.0589 0.185677 15.9791 0.172188 15.8982L0.171084 15.8916C0.136131 15.6819 0.141872 15.4674 0.187993 15.2598L0.220109 15.1153C0.251081 14.9759 0.29903 14.8409 0.362881 14.7132C0.446818 14.5453 0.55727 14.3921 0.689987 14.2594L1.00963 13.9397L1.97539 13.0482L2.71829 12.4539L4.20407 11.2653L5.31841 10.3738L6.28417 9.63093L7.24993 8.96232L8.36427 8.14514L10.0729 6.88223L11.0387 6.06504L11.9302 5.32215L13.2674 4.35639L14.2331 3.6135L15.0503 3.01919L15.7932 2.42487L16.8332 1.68198L17.5761 1.08767L17.8708 0.866676C18.0702 0.71715 18.2826 0.585867 18.5055 0.474417L18.7014 0.376446C18.8423 0.306017 18.9904 0.251215 19.1432 0.21302C19.3844 0.152731 19.6341 0.134554 19.8815 0.159288L19.9726 0.168406C20.1567 0.186815 20.3367 0.234489 20.5058 0.309629L20.5797 0.342495C20.8023 0.44142 20.9959 0.59565 21.142 0.79051L21.2549 0.988029C21.3756 1.19937 21.4392 1.43857 21.4392 1.68198V2.42487L21.3649 3.83637L21.2906 5.09929L21.2163 6.51078L21.142 7.40225V7.99656V9.03661V9.77951V10.0767C21.142 10.1587 21.2085 10.2252 21.2906 10.2252H22.1821L23.6678 10.0767L24.9308 9.92809L26.0451 9.77951L27.828 9.55664L29.0167 9.48235H30.4282H31.3939H32.7311H33.994L34.6513 9.39472C34.9551 9.3542 35.2537 9.28093 35.5418 9.17618L35.6164 9.14902C35.8221 9.07425 36.02 8.97994 36.2076 8.86738C36.513 8.68417 36.7879 8.45442 37.0224 8.18642L37.1885 7.99656L37.9314 7.03081L38.1883 6.67118C38.5117 6.21834 38.872 5.79299 39.2655 5.39949L39.7143 4.95071L39.7793 4.8975C40.2796 4.48818 40.818 4.12782 41.3872 3.82136L41.4973 3.76208L42.6116 3.24205L43.8745 2.79632L45.1374 2.42487C45.8289 2.27671 46.534 2.20201 47.2411 2.20201H47.589L47.9672 2.22425C48.5559 2.25888 49.1404 2.34498 49.714 2.48157L50.412 2.64774L51.452 3.01919L52.4921 3.46492L54.1264 4.35639L55.1665 5.025L56.0374 5.43143C56.1993 5.50698 56.3681 5.56684 56.5414 5.61016L56.6589 5.63955C56.8025 5.67545 56.95 5.6936 57.098 5.6936L57.2383 5.67606C57.5396 5.6384 57.8344 5.56011 58.1147 5.44333C58.4256 5.31375 58.7154 5.13819 58.9742 4.92252L59.4753 4.50497L60.7382 3.39063L61.4811 2.72203C62.0243 2.32692 62.6077 1.99016 63.2216 1.71734L63.6354 1.5334L63.8704 1.43549C64.3072 1.25349 64.7592 1.11033 65.2212 1.00768C65.6491 0.912584 66.0841 0.852581 66.5218 0.828264L67.2013 0.79051L67.4276 0.800795C68.3618 0.84326 69.2857 1.0148 70.1729 1.31054L70.6251 1.51924C71.6049 1.97148 72.5057 2.57825 73.293 3.31634L74.0359 4.05924L74.7788 5.025L75.4474 5.99076L75.7982 6.55202C76.0593 6.9697 76.2894 7.40592 76.4869 7.85717L76.7104 8.36801L76.8527 8.61707C77.1534 9.14333 77.4061 9.69558 77.6079 10.2671L77.7504 10.671L78.1218 11.9339L78.3447 13.1968L78.5676 14.7569L78.6419 16.5398V17.5799L78.5676 18.5456L78.3447 19.5857L78.2669 19.8969C78.1717 20.2779 77.9845 20.6298 77.7217 20.9218C77.544 21.1193 77.3347 21.2859 77.1024 21.4149L77.0476 21.4454C76.8728 21.5425 76.688 21.6205 76.4965 21.6779L76.2287 21.7583C76.1043 21.7956 75.977 21.8225 75.8481 21.8386L75.7744 21.8478C75.558 21.8748 75.3386 21.8645 75.1257 21.8172C74.8964 21.7662 74.6786 21.6732 74.4831 21.5429L74.3129 21.4294C74.1784 21.3398 74.0569 21.2321 73.9517 21.1094C73.7631 20.8894 73.6316 20.6263 73.5687 20.3435L73.5539 20.2765C73.5286 20.1628 73.5131 20.0473 73.5076 19.931L73.4416 18.5456V17.357L73.4291 17.1443C73.388 16.446 73.2746 15.754 73.0905 15.0792L72.9216 14.4597L72.4759 12.9739L71.9558 11.6367L71.1387 10.0767L70.2472 8.73946L69.7743 8.07747C69.5946 7.82586 69.3944 7.58953 69.1758 7.37089C68.8512 7.04634 68.4881 6.76282 68.0945 6.52667L67.731 6.30856C67.6257 6.24537 67.5155 6.19071 67.4014 6.14509L67.3176 6.11156C66.9981 5.98374 66.6506 5.94208 66.3099 5.99076L65.7937 6.09399C65.3979 6.17315 65.0186 6.31979 64.6724 6.52748C64.5261 6.61528 64.3863 6.71361 64.2542 6.82168L64.0773 6.96642C63.7833 7.20701 63.5103 7.47231 63.2615 7.75942L63.1394 7.90028C62.8268 8.26103 62.4854 8.59586 62.1187 8.90148L61.7782 9.18519L61.2238 9.60103C60.8016 9.91763 60.3553 10.2007 59.889 10.4476L59.3267 10.7453L58.6517 11.0152C58.3593 11.1322 58.0575 11.2242 57.7496 11.2902C57.3658 11.3724 56.9744 11.4139 56.5818 11.4139H56.5467C56.2214 11.4139 55.8967 11.387 55.5759 11.3335L55.4663 11.3153C54.9706 11.2326 54.4848 11.0987 54.0169 10.9156L53.0121 10.5224L51.972 10.0024L50.0405 8.96232L49.2196 8.47945C48.9254 8.30639 48.6178 8.15727 48.2996 8.03356L47.8472 7.8576C47.5774 7.75269 47.2939 7.6872 47.0054 7.66316C46.7028 7.63795 46.3982 7.65862 46.1017 7.72449L45.8803 7.7737L45.2348 7.97541C44.8748 8.08792 44.5339 8.25435 44.2238 8.46906C43.8941 8.69736 43.6032 8.97733 43.3626 9.29819L42.8345 10.0024L42.1659 10.9681L41.423 12.0082L40.6058 12.9739L39.7143 13.7911L39.3698 14.0667C38.8591 14.4753 38.2942 14.8113 37.6913 15.0652C37.3566 15.2061 37.0115 15.3211 36.6592 15.4092L36.6171 15.4198C36.0098 15.5716 35.3862 15.6484 34.7601 15.6484H34.2912H32.5826L29.8339 15.5741H28.1252H26.6394L25.2279 15.6484L23.6678 15.7969L22.6278 15.9455L21.662 16.1684C21.4001 16.2557 21.2312 16.5101 21.2523 16.7854L21.2906 17.2827L21.4392 18.9914L21.662 20.6257L21.8849 22.2601L22.0335 23.8202L22.2564 25.0831L22.359 25.8527C22.3895 26.0813 22.3871 26.3132 22.352 26.5412L22.3313 26.6762C22.2821 26.9955 22.1522 27.2971 21.9538 27.5521C21.8101 27.737 21.6333 27.8936 21.4325 28.0141L21.3388 28.0703C21.1101 28.2076 20.8607 28.307 20.6003 28.3649L20.519 28.383C20.3899 28.4116 20.2581 28.4261 20.1259 28.4261C19.8654 28.4261 19.6079 28.3699 19.371 28.2613L17.9476 27.6089L12.5988 24.5631L8.36427 21.8886L4.79838 19.7343L1.75253 17.8027L1.32393 17.5027C1.11516 17.3566 0.924809 17.1858 0.757 16.994L0.700788 16.9298C0.560577 16.7695 0.441414 16.592 0.346192 16.4016Z" fill="black" stroke="#242021" stroke-width="0.297157"/>
</svg>
