<svg width="40" height="40" viewBox="0 0 40 40" fill="none" xmlns="http://www.w3.org/2000/svg">
<path d="M3 4.7C1.2 7.5 0 10.7 0 12.7C0 15.6 0.3 16 2.5 16C4.4 16 5 15.5 5 14C5 11.5 7.3 6.8 9.4 5.1C10.6 4.1 10.7 3.3 9.9 1.9C8.3 -1.2 6.2 -0.3 3 4.7Z" fill="white"/>
<path d="M17 1.9C17 3 16.1 4.1 15 4.5C14 4.8 11.9 6.5 10.5 8.1C8.3 10.8 8 12 8 19.4C8 26.4 7.7 28 6 29.5C1.6 33.5 3 34 20 34C37 34 38.4 33.5 34 29.5C32.3 28 32 26.4 32 19.4C32 12 31.7 10.8 29.5 8.1C28.1 6.5 26 4.8 25 4.5C23.9 4.1 23 3 23 1.9C23 0.5 22.3 0 20 0C17.7 0 17 0.5 17 1.9Z" fill="white"/>
<path d="M30.1 1.9C29.3 3.3 29.4 4.1 30.6 5.1C32.7 6.8 35 11.5 35 14C35 15.5 35.6 16 37.5 16C39.7 16 40 15.6 40 12.7C40 8.9 34.8 2.68221e-07 32.6 2.68221e-07C31.7 2.68221e-07 30.6 0.9 30.1 1.9Z" fill="white"/>
<path d="M16.2 37.7C16.4 39 17.5 39.5 20 39.5C22.5 39.5 23.6 39 23.8 37.7C24.1 36.3 23.4 36 20 36C16.6 36 15.9 36.3 16.2 37.7Z" fill="white"/>
</svg>
