<svg width="24" height="24" viewBox="0 0 24 24" fill="none" xmlns="http://www.w3.org/2000/svg">
<path d="M6.07641 0.280726C5.8138 0.54334 5.79569 0.597674 5.79569 1.23157V1.90169H4.99879C3.56799 1.90169 2.44509 2.34542 1.43991 3.32343C1.10485 3.64038 0.71546 4.13844 0.561514 4.41916C-0.0180487 5.5149 6.2669e-05 5.26134 6.2669e-05 12.533C6.2669e-05 17.7763 0.0272297 19.2433 0.126842 19.6055C0.534347 21.154 2.02853 22.6482 3.56799 23.0557C4.24717 23.2368 18.9355 23.2368 19.6146 23.0557C21.1541 22.6482 22.6483 21.154 23.0558 19.6055C23.1554 19.2433 23.1826 17.7763 23.1826 12.533C23.1826 5.26134 23.2007 5.5149 22.6211 4.41916C22.4672 4.13844 22.0778 3.64038 21.7427 3.32343C20.7375 2.34542 19.6146 1.90169 18.1838 1.90169H17.3869V1.23157C17.3869 0.597674 17.3688 0.54334 17.1062 0.280726C16.8889 0.0543339 16.753 -4.93601e-08 16.4451 -4.93601e-08C15.7479 -4.93601e-08 15.3947 0.470894 15.3947 1.40363V1.90169H11.5913H7.78793V1.40363C7.78793 0.470894 7.43476 -4.93601e-08 6.73748 -4.93601e-08C6.42958 -4.93601e-08 6.29375 0.0543339 6.07641 0.280726ZM19.017 4.01166C19.678 4.17466 20.2123 4.51878 20.6017 5.05306C21.0364 5.64168 21.1903 6.15785 21.1903 6.99097V7.69731H11.5913H1.99231V6.99097C1.99231 6.15785 2.14626 5.64168 2.58093 5.05306C2.96126 4.53689 3.5046 4.17466 4.12039 4.02071C4.79956 3.85771 18.3197 3.84866 19.017 4.01166ZM21.1903 14.2627C21.1903 18.709 21.1813 18.8448 21.0001 19.352C20.7375 20.0583 20.0584 20.7375 19.352 21.0001C18.8358 21.1903 18.7634 21.1903 11.5913 21.1903C4.41923 21.1903 4.34678 21.1903 3.83061 21.0001C3.12427 20.7375 2.44509 20.0583 2.18248 19.352C2.00136 18.8448 1.99231 18.709 1.99231 14.2627V9.68956H11.5913H21.1903V14.2627Z" fill="white"/>
<path d="M5.99033 13.2395C5.33832 13.6561 5.11193 14.625 5.51944 15.277C6.08089 16.1826 7.47546 16.1826 8.03691 15.277C8.44442 14.616 8.20897 13.638 7.55696 13.2395C7.14946 12.9859 6.38878 12.9859 5.99033 13.2395Z" fill="white"/>
<path d="M10.8028 13.2302C10.1508 13.6468 9.92443 14.6157 10.3319 15.2678C10.8934 16.1733 12.288 16.1733 12.8494 15.2678C13.2569 14.6067 13.0215 13.6287 12.3695 13.2302C11.962 12.9767 11.2013 12.9767 10.8028 13.2302Z" fill="white"/>
<path d="M15.6495 13.2395C14.9975 13.6561 14.7711 14.625 15.1786 15.277C15.7401 16.1826 17.1346 16.1826 17.6961 15.277C18.1036 14.616 17.8681 13.638 17.2161 13.2395C16.8086 12.9859 16.048 12.9859 15.6495 13.2395Z" fill="white"/>
</svg>
