<svg width="26" height="25" viewBox="0 0 26 25" fill="none" xmlns="http://www.w3.org/2000/svg">
<path d="M11.0811 14.2553L10.965 14.1255C10.5485 13.6598 10.1777 13.1551 9.85768 12.6185L9.69088 12.3387C9.38834 11.8313 9.14995 11.2884 8.98117 10.7223C8.78383 10.0603 8.68359 9.3733 8.68359 8.6826V8.56141C8.68359 8.1037 8.72302 7.64683 8.80145 7.19589L8.83735 6.98944C8.91855 6.52257 9.04645 6.06503 9.21914 5.62373C9.59325 4.66765 10.171 3.80446 10.9122 3.0941L10.9443 3.06341C11.2754 2.74604 11.6369 2.46184 12.0234 2.21488C12.7336 1.76115 13.5196 1.43882 14.3439 1.26328L14.6679 1.19427C15.2744 1.06511 15.8927 1 16.5128 1H16.7198C17.6098 1 18.4945 1.13787 19.3424 1.40871L19.5999 1.49097C20.227 1.69132 20.8217 1.98204 21.365 2.35394C22.0989 2.85636 22.7268 3.49839 23.2126 4.2434L23.4184 4.55892C23.7094 5.00505 23.9538 5.47985 24.1479 5.97585L24.1675 6.02587C24.5085 6.89749 24.6836 7.8252 24.6836 8.76117C24.6836 9.40053 24.6019 10.0373 24.4405 10.6559L24.3761 10.9029C24.2141 11.5239 23.9651 12.1189 23.6364 12.6701C23.2341 13.3447 22.7181 13.9446 22.1111 14.4431L22.0589 14.486C21.4226 15.0087 20.7013 15.4182 19.9264 15.6967L19.7944 15.7441C19.1939 15.9599 18.5698 16.1031 17.9354 16.1707L17.8236 16.1826C16.8856 16.2825 15.9377 16.2332 15.0151 16.0368L13.925 15.8046L13.7622 15.7526C12.7773 15.438 11.8656 14.9288 11.0811 14.2553ZM11.0811 14.2553L0.683594 24" stroke="white" stroke-width="2"/>
</svg>
