<svg width="18" height="22" viewBox="0 0 18 22" fill="none" xmlns="http://www.w3.org/2000/svg">
<path d="M8.875 5.875V11.875M0.875 18.375V3.375C0.875 2.71196 1.13839 2.07607 1.60723 1.60723C2.07607 1.13839 2.71196 0.875 3.375 0.875H15.875C16.1402 0.875 16.3946 0.980357 16.5821 1.16789C16.7696 1.35543 16.875 1.60978 16.875 1.875V19.875C16.875 20.1402 16.7696 20.3946 16.5821 20.5821C16.3946 20.7696 16.1402 20.875 15.875 20.875H3.375C2.71196 20.875 2.07607 20.6116 1.60723 20.1428C1.13839 19.6739 0.875 19.038 0.875 18.375ZM0.875 18.375C0.875 17.712 1.13839 17.0761 1.60723 16.6072C2.07607 16.1384 2.71196 15.875 3.375 15.875H16.875M5.875 8.875H11.875" stroke="black" stroke-width="1.75" stroke-linecap="round" stroke-linejoin="round"/>
</svg>
