<svg width="32" height="32" viewBox="0 0 32 32" fill="none" xmlns="http://www.w3.org/2000/svg">
<path d="M31 16.2V16.2598C31 16.7464 30.8854 17.2262 30.6654 17.6603C30.3566 18.2696 29.8551 18.7598 29.2388 19.0546L16.8108 25L7.48649 29.4L4.88981 30.681C4.46447 30.8909 3.99656 31 3.52228 31C3.1942 31 2.86822 30.9478 2.55657 30.8453L2.19973 30.7279C1.94393 30.6438 1.71106 30.5016 1.51937 30.3124C1.18707 29.9846 1 29.5372 1 29.0704V28.9147C1 28.7061 1.03085 28.4985 1.09156 28.2989L4.52723 16.9993C4.60642 16.7389 4.60718 16.4609 4.52941 16.2M31 16.2H4.52941M31 16.2C31 15.6786 30.844 15.1691 30.5521 14.7371L30.5324 14.7079C30.3064 14.3735 30.009 14.0933 29.6617 13.8877L28.1622 13L4.56498 1.35872C4.08664 1.12274 3.56041 1 3.02703 1C2.5075 1 2.00661 1.20681 1.6368 1.5717C1.48414 1.72231 1.35598 1.89754 1.25904 2.08883L1.24102 2.12439C1.08257 2.43706 1 2.78266 1 3.13319V3.37138C1 3.65588 1.0376 3.93913 1.11183 4.21377L2.62162 9.8L4.52941 16.2" stroke="#8F691D" stroke-width="2"/>
</svg>
