<svg width="182" height="60" viewBox="0 0 182 60" fill="none" xmlns="http://www.w3.org/2000/svg">
<path d="M1.11611 8.93325C1.93158 4.60564 5.65695 1.43412 10.0592 1.31971L25.7445 0.912039H46.7241H68.363L89.8288 0.912038L133.699 0.75177L155.475 0.407925L170.96 0.0032519C176.101 -0.131085 180.385 3.91199 180.548 9.05177L180.735 14.9757L181.056 22.0368V28.7745L180.488 43.1533V48.7721C180.488 53.7669 176.561 57.8793 171.572 58.1098L158.024 58.7357L135.771 59.4532L113.875 58.7357L90.9106 58.4927L68.1242 58.7357L45.4411 58.4927L22.8917 58.0783H14.0546C13.3047 58.0783 12.5575 57.988 11.8292 57.8095L7.79856 56.8215C3.9314 55.8736 1.08914 52.5801 0.717177 48.6159L0 40.9725V27.6754L0.241483 17.3354L0.861208 10.286L1.11611 8.93325Z" fill="#906A1E"/>
</svg>
