<svg width="1110" height="61" viewBox="0 0 1110 61" fill="none" xmlns="http://www.w3.org/2000/svg">
<path d="M12.7868 4.98391C14.4756 3.52131 16.6325 2.71196 18.8666 2.70248L157.758 3.50249L819.286 6.11186L952.723 4.94012L1096.82 0.994772C1101.31 0.97562 1105.18 4.15263 1106.04 8.56116L1107.51 16.1771L1109.14 22.0075C1109.37 22.8241 1109.48 23.6679 1109.48 24.5157V28.8606C1109.48 29.6014 1109.39 30.3397 1109.22 31.0598L1106.26 43.2707C1106.09 43.9908 1106 44.729 1106 45.4699V49.6218C1106 54.7569 1101.86 58.9305 1096.72 58.9692L968.342 59.9371L831.983 60.6546L697.806 59.9371L557.084 59.694L417.453 59.9371L278.455 59.694L140.276 59.2796H79.2062L25.6811 60.8763C24.7392 60.9044 23.7984 60.7899 22.8907 60.5367L11.8874 57.4674C9.52572 56.8086 7.51745 55.2483 6.29535 53.1228L1.24401 44.3374C0.428945 42.9199 0 41.3133 0 39.6781V29.5423C0 29.0992 0.0315051 28.6567 0.0942768 28.218L1.24427 20.1823C1.40005 19.0938 1.74665 18.0413 2.26815 17.0733L4.46388 12.9973C5.00169 11.999 5.71667 11.1068 6.57388 10.3645L12.7868 4.98391Z" fill="#906A1E"/>
<path d="M12.7868 55.8966C14.4756 57.3592 16.6325 58.1685 18.8666 58.178L157.758 58.7671L819.286 58.9274L952.723 59.2712L1096.82 59.8857C1101.31 59.9049 1105.18 56.7279 1106.04 52.3193L1107.51 44.7034L1109.14 38.873C1109.37 38.0564 1109.48 37.2126 1109.48 36.3648V32.0199C1109.48 31.279 1109.39 30.5408 1109.22 29.8207L1106.26 17.6098C1106.09 16.8897 1106 16.1515 1106 15.4106V11.2587C1106 6.12364 1101.86 1.95003 1096.72 1.91132L968.342 2.67102L831.983 0.225904L697.806 2.67102L557.084 3.49928L417.453 2.67102L278.455 0.343748L140.276 1.75593H79.2062L25.6811 0.0041565C24.7392 -0.023942 23.7984 0.0905493 22.8907 0.343748L11.8874 3.41313C9.52572 4.0719 7.51745 5.63217 6.29535 7.75767L1.24401 16.543C0.428945 17.9606 0 19.5672 0 21.2024V31.3382C0 31.7813 0.0315051 32.2238 0.0942768 32.6625L1.24427 40.6982C1.40005 41.7867 1.74665 42.8392 2.26815 43.8072L4.46388 47.8832C5.00169 48.8815 5.71667 49.7736 6.57388 50.516L12.7868 55.8966Z" fill="#906A1E"/>
</svg>
