<svg width="708" height="60" viewBox="0 0 708 60" fill="none" xmlns="http://www.w3.org/2000/svg">
<path d="M7.03762 5.47613C8.78622 3.09973 11.5541 1.68836 14.5045 1.66873L100.531 1.09615H182.454H266.952L350.775 1.09615L522.086 0.935883L607.118 0.592037L695.557 0.000187183C700.3 -0.0315511 704.314 3.49335 704.897 8.20017L705.757 15.1598L706.867 21.4104C706.963 21.9497 707.011 22.4964 707.011 23.0441V28.2419C707.011 28.719 706.974 29.1954 706.901 29.6669L704.902 42.6291C704.829 43.1006 704.793 43.577 704.793 44.0541V48.6443C704.793 53.7637 700.675 57.9307 695.556 57.9913L617.071 58.9198L530.177 59.6373L444.674 58.9198L354.999 58.6768L266.02 58.9198L177.444 58.6768L89.3904 58.2624H50.4738L11.3185 55.8046C7.61701 55.5722 4.40297 53.1735 3.12704 49.6912L0.5706 42.7139C0.193148 41.6838 0 40.5952 0 39.498V27.8596L0.840721 18.6407C0.908644 17.8959 1.06571 17.162 1.30854 16.4546L2.89853 11.823C3.20635 10.9263 3.6488 10.0816 4.21069 9.318L7.03762 5.47613Z" fill="#906A1E"/>
</svg>
