<svg width="31" height="23" viewBox="0 0 31 23" fill="none" xmlns="http://www.w3.org/2000/svg">
<path d="M4.18878 0.0974546C3.64138 0.264054 2.78459 1.14465 2.62989 1.70395C2.54659 2.01335 2.49899 4.61943 2.49899 9.33181V16.5075H1.61839C0.785397 16.5075 0.713997 16.5313 0.368898 16.8764C0.0356999 17.2096 0 17.3167 0 17.9831C0 18.8637 0.249899 19.6729 0.773497 20.494C1.63029 21.803 2.77269 22.5646 4.28398 22.8026C5.34308 22.9811 25.1208 22.9811 26.1799 22.8026C27.6912 22.5646 28.8336 21.803 29.6904 20.494C30.214 19.6729 30.4639 18.8637 30.4639 17.9831C30.4639 17.3167 30.4282 17.2096 30.095 16.8764C29.7499 16.5313 29.6785 16.5075 28.8574 16.5075H27.9768L27.9054 1.68015L27.5722 1.18035C27.3937 0.906651 27.0248 0.537753 26.7511 0.359253L26.2513 0.0260549L15.4223 0.00225504C8.72266 -0.0096449 4.42678 0.0260549 4.18878 0.0974546ZM25.3469 16.5075H5.11698V2.58454H25.3469V16.5075ZM11.4239 20.3155H8.40136C5.05748 20.3155 4.31968 20.2322 3.64138 19.7443C2.73699 19.1255 2.71319 19.1255 7.24707 19.1255H11.4239V20.3155ZM16.4219 20.3155H14.0419V19.1255H16.4219V20.3155ZM27.3461 19.2683C27.239 19.5658 26.3465 20.0775 25.7158 20.1965C25.3707 20.256 23.7166 20.3155 22.0625 20.3155H19.0399V19.1255H23.2168C26.5012 19.1255 27.3818 19.1612 27.3461 19.2683Z" fill="white"/>
<path d="M22.9312 4.46469C22.8479 4.57179 21.6222 6.27348 20.2299 8.22507L17.6952 11.7832L17.481 11.4976C16.41 10.0577 13.435 6.53528 13.1732 6.41628C12.5425 6.10688 12.1022 6.36868 10.4482 8.02277L8.92496 9.54597L7.25897 7.87997L6.30697 8.83197L5.35498 9.79587L6.81867 11.2477L8.29426 12.6995H9.43666L11.0075 11.1525L12.5782 9.59357L14.6845 12.2116C15.8507 13.6514 16.9336 14.9485 17.1121 15.0913C17.5524 15.4364 18.2426 15.3412 18.6829 14.8771C18.8614 14.6986 20.3608 12.64 22.0149 10.3195C23.669 7.99897 25.0732 6.03548 25.1327 5.96408C25.2041 5.86888 24.8828 5.57138 24.1688 5.04779C23.193 4.33379 23.0978 4.28619 22.9312 4.46469Z" fill="white"/>
</svg>
