<svg width="224" height="204" viewBox="0 0 224 204" fill="none" xmlns="http://www.w3.org/2000/svg">
<path d="M0 33.9523V67.9043H96.1974H192.395V33.9523V0.000244141H96.1974H0V33.9523Z" fill="black"/>
<path d="M203.712 56.0211V89.9731L148.823 91.6707L93.3679 93.3683L91.6703 114.305C91.6703 126.141 93.4042 135.808 84.314 135.808C81.4847 135.808 79.2212 151.087 79.2212 169.76V203.712H101.856H124.491V169.76C124.491 151.087 122.227 135.808 118.832 135.808C111.597 135.808 113.173 130.716 113.173 124.491C113.173 114.305 117.7 113.174 168.628 112.042L223.517 110.344V67.9043C223.517 32.2547 223.517 32.7288 213.898 23.7667C203.712 14.2773 203.712 26.596 203.712 56.0211Z" fill="black"/>
</svg>
